<?xml version="1.0" standalone="no"?>
<!DOCTYPE svg PUBLIC "-//W3C//DTD SVG 20010904//EN"
 "http://www.w3.org/TR/2001/REC-SVG-20010904/DTD/svg10.dtd">
<svg version="1.0" xmlns="http://www.w3.org/2000/svg"
 width="512.000000pt" height="512.000000pt" viewBox="0 0 512.000000 512.000000"
 preserveAspectRatio="xMidYMid meet">

<g transform="translate(0.000000,512.000000) scale(0.100000,-0.100000)"
fill="#70b0ff" stroke="none">
<path d="M2321 5109 c-486 -43 -989 -249 -1376 -564 -114 -92 -294 -274 -384
-387 -229 -287 -417 -675 -495 -1023 -49 -218 -60 -325 -60 -575 0 -250 11
-357 60 -575 79 -355 272 -749 509 -1040 92 -114 274 -294 387 -384 287 -229
675 -417 1023 -495 218 -49 325 -60 575 -60 250 0 357 11 575 60 261 58 603
204 828 353 389 259 688 599 893 1016 165 337 246 658 261 1033 23 598 -168
1183 -545 1672 -84 109 -323 348 -432 432 -528 407 -1164 595 -1819 537z m519
-375 c334 -46 644 -160 907 -333 101 -66 223 -159 223 -169 0 -4 -693 -700
-1541 -1547 l-1540 -1540 -36 40 c-53 60 -154 209 -212 313 -423 757 -352
1714 177 2399 303 392 749 681 1222 794 244 58 565 76 800 43z m1437 -811
c269 -325 444 -776 472 -1220 64 -1018 -554 -1919 -1534 -2236 -340 -111 -777
-128 -1135 -46 -256 59 -502 162 -707 298 -101 66 -223 159 -223 169 0 9 3073
3082 3082 3082 3 0 24 -21 45 -47z"/>
</g>
<g transform="translate(50.000000,470.000000) scale(0.08,-0.08)"
fill="#70b0ff" stroke="none">
<path d="M2430 5114 c-229 -26 -360 -54 -508 -109 -392 -147 -720 -416 -943
-775 -210 -339 -307 -778 -259 -1170 78 -631 528 -1501 1274 -2465 176 -228
403 -501 455 -548 69 -62 153 -62 222 0 52 47 279 320 455 548 671 867 1102
1655 1238 2267 35 157 46 259 46 423 -1 480 -193 939 -540 1285 -286 287 -623
460 -1020 525 -94 15 -352 27 -420 19z m247 -925 c373 -50 682 -318 783 -679
27 -95 37 -286 21 -390 -47 -296 -241 -556 -516 -690 -162 -79 -328 -109 -497
-90 -132 15 -199 34 -313 90 -275 134 -469 394 -516 690 -16 104 -6 295 21
390 125 446 566 741 1017 679z"/>
</g>
</svg>
