<?xml version="1.0" standalone="no"?>
<!DOCTYPE svg PUBLIC "-//W3C//DTD SVG 20010904//EN"
 "http://www.w3.org/TR/2001/REC-SVG-20010904/DTD/svg10.dtd">
<svg version="1.0" xmlns="http://www.w3.org/2000/svg"
 width="512.000000pt" height="512.000000pt" viewBox="0 0 512.000000 512.000000"
 preserveAspectRatio="xMidYMid meet">

<g transform="translate(0.000000,512.000000) scale(0.100000,-0.100000)"
fill="#70b0ff" stroke="none">
<path d="M1732 5099 c-371 -78 -644 -328 -759 -696 l-28 -88 -3 -1132 c-3
-1124 -2 -1132 18 -1195 43 -130 139 -229 265 -273 36 -12 68 -25 71 -27 2 -3
-164 -317 -370 -698 -259 -478 -377 -706 -382 -736 -14 -93 17 -164 95 -219
37 -26 51 -30 109 -30 99 0 142 28 211 133 l54 82 1548 0 1547 0 47 -75 c76
-122 149 -161 260 -136 126 28 196 158 151 282 -7 19 -180 340 -385 713 -204
372 -369 681 -366 686 3 5 20 12 38 15 87 19 189 96 247 187 75 115 71 50 68
1303 -4 1230 1 1134 -64 1305 -93 250 -324 474 -578 561 -168 58 -183 59 -976
58 -679 0 -731 -2 -818 -20z m1553 -474 c39 -8 108 -33 155 -56 68 -32 99 -56
165 -122 92 -94 136 -170 165 -283 18 -69 20 -111 20 -406 0 -274 -3 -335 -15
-366 -22 -51 -52 -81 -110 -108 l-50 -24 -1044 0 c-753 0 -1054 3 -1082 11
-52 16 -103 61 -128 112 -19 39 -21 67 -27 357 -8 372 -4 412 62 549 83 170
242 296 424 335 99 22 1365 22 1465 1z m-1493 -1913 c55 -27 122 -91 148 -142
44 -86 44 -214 0 -300 -26 -51 -93 -115 -148 -142 -39 -19 -63 -23 -142 -23
-87 0 -100 3 -149 30 -248 137 -220 492 48 592 57 21 186 13 243 -15z m1793
-3 c77 -29 155 -107 185 -186 77 -205 -80 -435 -298 -435 -208 0 -358 176
-321 376 13 74 29 106 82 163 39 43 94 77 147 94 50 15 148 9 205 -12z m-178
-1204 l93 -170 -470 -3 c-259 -1 -681 -1 -940 0 l-470 3 71 130 c39 72 82 149
95 173 l25 42 751 -2 751 -3 94 -170z m393 -720 c66 -116 120 -213 120 -217 0
-5 -612 -8 -1360 -8 -748 0 -1360 3 -1360 6 0 6 130 239 217 392 l25 42 1120
-2 1119 -3 119 -210z"/>
</g>
</svg>
